# xmcd
#
# Track frame offsets:
#	182
#	32677
#	52002
#	87825
#	107727
#	158832
#	194815
#	217817
#	238290
#	268182
#	282257
#
# Disc length: 4264 seconds
#
# Revision: 0
# Processed by: cddbd v1.4PL0 Copyright (c) Steve Scherf et al.
# Submitted via: dBpowerAMP V4.0
#
DISCID=a210a60b
DTITLE=Freddie King - Let The Good Times Roll
DYEAR=1900
DGENRE=Blues
TTITLE0=You're The One
TTITLE1=Goin' Down
TTITLE2=Stormy Monday Blues
TTITLE3=Messin' With The Kid
TTITLE4=Sweet Little Angel
TTITLE5=Let The Good Times Roll
TTITLE6=Wee Baby Blues
TTITLE7=Woman Across The River
TTITLE8=That's All Right
TTITLE9=The Danger Zone
TTITLE10=It Ain't Nobody's Business
EXTD=Wolf Records\nP.O. Box 375, A-1120 Vienna, Austria\nRecorded in France 1974-1975
EXTT0=
EXTT1=
EXTT2=
EXTT3=
EXTT4=
EXTT5=
EXTT6=
EXTT7=
EXTT8=
EXTT9=
EXTT10=
PLAYORDER=
